# xmcd
#
# Track frame offsets:
#	150
#	20115
#	45848
#	64306
#	79013
#	98730
#	112555
#	131287
#	148944
#	173830
#	192459
#	218462
#	242061
#	255897
#	270654
#	291743
#
# Disc length: 4118 seconds
#
# Revision: 1
# Processed by: cddbd v1.5.2PL0 Copyright (c) Steve Scherf et al.
# Submitted via: audiograbber 1.83.01
#
DISCID=de101410
DTITLE=Various Artist - Olivers Market Real Music Vol. 1 - Disc 1
DYEAR=2012
DGENRE=
TTITLE0=Solid Air - Travelin' Child
TTITLE1=The Pulsators - Sum A'Dat
TTITLE2=Under The Radar - Happy Blues
TTITLE3=Teresa Tudury - Miss America
TTITLE4=Frobeck - Not Gonna Happen
TTITLE5=Roxanne Oliva - Fifi's Closet 
TTITLE6=Danny Sorentino - Sonoma County Stars
TTITLE7=Midnight Sun Massive - Sugar Boom
TTITLE8=The Ruminators - Is It True
TTITLE9=Smokehouse Gamblers - Take It High
TTITLE10=The Crux - Be Merry, My Friends!
TTITLE11=The Hellhounds - All Night Boogie
TTITLE12=Gabby Lala - Halloween
TTITLE13=Jason Bodlovich Group - Willie B
TTITLE14=Peter Welker - Sweet George
TTITLE15=Gatorbeat - Let's Dance
EXTD=Produced as a benefit for Redwood Empire Foodbank featuring Sonoma County,
EXTD=California muscicans.
EXTT0=
EXTT1=
EXTT2=
EXTT3=
EXTT4=
EXTT5=
EXTT6=
EXTT7=
EXTT8=
EXTT9=
EXTT10=
EXTT11=
EXTT12=
EXTT13=
EXTT14=
EXTT15=
PLAYORDER=
